<svg xmlns="http://www.w3.org/2000/svg" aria-hidden="true" style="position:absolute;width:0;height:0;overflow:hidden">
  <defs>
    <symbol id="icon-union" viewBox="0 0 43 32">
      <path d="m34.664 10.126.006.002-.003-.001-.003-.001zm-24.78-.167c5.927-.368 16.969-.368 22.896 0l.002.017c.143 1.446.2 3.376.2 6.068 0 2.659-.056 4.589-.196 6.048-6.052.241-16.852.241-22.906 0-.141-1.444-.198-3.368-.198-6.048 0-2.692.058-4.622.2-6.068l.002-.017zm24.955 12.009-.012.003.012-.003zM7.995 21.96l.006.002a.032.032 0 0 1-.006-.002zM0 16.044c0 11.022.889 15.11 7.822 15.644 6.4.356 20.621.356 27.021 0 6.933-.355 7.822-4.622 7.822-15.644S41.776.934 34.843.4c-6.4-.533-20.621-.533-27.021 0C.889.933 0 5.022 0 16.044zm7.995-5.917.006-.002-.006.002zm14.365 9.848c-2.922 1.461-6.36-.664-6.36-3.931s3.438-5.392 6.36-3.931c3.239 1.62 3.239 6.242 0 7.861z"/>
    </symbol>
    <symbol id="icon-twitter" viewBox="0 0 39 32">
      <path d="M12.386 32.009c14.863 0 22.991-12.314 22.991-22.991 0-.35-.007-.698-.023-1.045a16.43 16.43 0 0 0 4.031-4.184 16.154 16.154 0 0 1-4.64 1.272 8.107 8.107 0 0 0 3.553-4.47 16.206 16.206 0 0 1-5.131 1.962A8.073 8.073 0 0 0 27.268 0a8.082 8.082 0 0 0-8.082 8.08c0 .634.071 1.251.209 1.842C12.68 9.585 6.725 6.369 2.74 1.48a8.05 8.05 0 0 0-1.095 4.061 8.076 8.076 0 0 0 3.596 6.726 8.024 8.024 0 0 1-3.66-1.011c-.002.034-.002.068-.002.103a8.082 8.082 0 0 0 6.483 7.921 8.092 8.092 0 0 1-3.649.138 8.09 8.09 0 0 0 7.549 5.612 16.21 16.21 0 0 1-10.036 3.459c-.652 0-1.295-.037-1.927-.112a22.873 22.873 0 0 0 12.386 3.63z"/>
    </symbol>
    <symbol id="icon-message" viewBox="0 0 32 32">
      <path d="M16 7.273c-3.019 0-7.132.259-9.743.449-.867.063-1.539.75-1.539 1.588v.948l10.452 5.49a1.796 1.796 0 0 0 1.66 0l10.452-5.49V9.31c0-.839-.672-1.525-1.539-1.588-2.612-.19-6.724-.449-9.743-.449zm11.282 5.203-9.456 4.967a3.95 3.95 0 0 1-3.653 0l-9.456-4.967v10.213c0 .839.672 1.525 1.539 1.588 2.611.19 6.724.449 9.743.449s7.132-.259 9.743-.449c.867-.063 1.539-.75 1.539-1.588V12.476zM6.099 5.788c2.613-.19 6.795-.455 9.901-.455s7.288.264 9.901.455c1.953.142 3.433 1.686 3.433 3.522v13.38c0 1.836-1.48 3.38-3.433 3.522-2.613.19-6.795.455-9.901.455s-7.288-.265-9.901-.455c-1.953-.142-3.433-1.686-3.433-3.522V9.31c0-1.836 1.48-3.38 3.433-3.522z"/>
    </symbol>
    <symbol id="icon-message-rounded" viewBox="0 0 32 32">
      <path stroke-linecap="round" stroke-linejoin="round" stroke-width="2.667" d="M24.215 11.584s-4.756 5.708-8.234 5.708c-3.477 0-8.286-5.708-8.286-5.708"/>
      <path stroke-linecap="round" stroke-linejoin="round" stroke-width="2.667" d="M1.855 15.954c0-10.131 3.527-13.506 14.109-13.506s14.109 3.376 14.109 13.506c0 10.129-3.527 13.506-14.109 13.506S1.855 26.083 1.855 15.954z"/>
    </symbol>
    <symbol id="icon-message-rounded1" viewBox="0 0 32 32">
      <path stroke-linecap="round" stroke-linejoin="round" stroke-width="2.667" d="M24.215 11.584s-4.756 5.708-8.234 5.708c-3.477 0-8.286-5.708-8.286-5.708"/>
      <path stroke-linecap="round" stroke-linejoin="round" stroke-width="2.667" d="M1.855 15.954c0-10.131 3.527-13.506 14.109-13.506s14.109 3.376 14.109 13.506c0 10.129-3.527 13.506-14.109 13.506S1.855 26.083 1.855 15.954z"/>
    </symbol>
    <symbol id="icon-logout" viewBox="0 0 32 32">
      <path stroke-linecap="round" stroke-linejoin="round" stroke-width="2.667" d="M30.507 16.179H12.669M26.171 11.859l4.338 4.32-4.338 4.32M22.461 9.526c-.489-5.304-2.474-7.23-10.37-7.23-10.52 0-10.52 3.422-10.52 13.704s0 13.704 10.52 13.704c7.896 0 9.882-1.926 10.37-7.23"/>
    </symbol>
    <symbol id="icon-location" viewBox="0 0 25 32">
      <path stroke-linecap="round" stroke-linejoin="round" stroke-width="2.667" d="M16.163 14.089a3.704 3.704 0 1 0-7.407 0 3.704 3.704 0 0 0 7.407 0z"/>
      <path stroke-linecap="round" stroke-linejoin="round" stroke-width="2.667" d="M12.444 29.333c-4.293 0-11.11-7.469-11.11-15.409 0-6.217 4.973-11.257 11.11-11.257s11.112 5.041 11.112 11.257c0 7.941-6.817 15.409-11.112 15.409z"/>
    </symbol>
    <symbol id="icon-line-arrow-right" viewBox="0 0 38 32">
      <path d="M2.133 15.415a1.6 1.6 0 0 1 1.383-1.585l.217-.015h32A1.6 1.6 0 0 1 35.95 17l-.217.015h-32a1.6 1.6 0 0 1-1.6-1.6z"/>
      <path d="M21.698 3.696a1.6 1.6 0 0 1 2.078-2.422l.18.155L36.863 14.28a1.6 1.6 0 0 1 .156 2.088l-.156.18-12.907 12.853a1.6 1.6 0 0 1-2.414-2.089l.155-.179 11.768-11.72L21.698 3.696z"/>
    </symbol>
    <symbol id="icon-find-loop" viewBox="0 0 32 32">
      <path d="M23.316 25.605c-6.395 5.094-15.335 3.684-20.071-2.158-4.57-5.64-4.285-13.777.674-18.927C9.042-.801 17.097-1.511 22.935 2.854a14.235 14.235 0 0 1 4.671 5.96c1.023 2.422 1.334 4.941.979 7.539-.354 2.586-1.386 4.891-3.066 7.042.136.089.281.153.385.257 1.847 1.838 3.687 3.683 5.534 5.521.438.436.656.943.526 1.555a1.59 1.59 0 0 1-2.636.851c-.436-.391-.836-.821-1.25-1.235l-4.55-4.548c-.063-.06-.129-.116-.211-.192zm2.221-11.226c.016-6.176-4.972-11.169-11.165-11.178A11.144 11.144 0 0 0 3.185 14.317c-.027 6.191 4.951 11.198 11.163 11.227 6.151.029 11.173-4.983 11.189-11.165z"/>
    </symbol>
    <symbol id="icon-linkedin" viewBox="0 0 32 32">
      <path d="M6.667 3.333c0 1.867-1.467 3.333-3.333 3.333S.001 5.199.001 3.333C.001 1.466 1.468 0 3.334 0s3.333 1.467 3.333 3.333zm0 6H0v21.333h6.667V9.333zm10.666 0h-6.667v21.333h6.667v-11.2c0-6.267 8-6.8 8 0v11.2H32V17.199c0-10.533-11.867-10.133-14.667-4.933V9.333z"/>
    </symbol>
    <symbol id="icon-instagram" viewBox="0 0 32 32">
      <path d="M16 2.933c4.267 0 4.8 0 6.533.133 4.4.133 6.4 2.267 6.533 6.533.133 1.733.133 2.133.133 6.4s0 4.8-.133 6.4c-.133 4.267-2.267 6.4-6.533 6.533-1.733.133-2.133.133-6.533.133-4.267 0-4.8 0-6.4-.133-4.4-.133-6.4-2.267-6.533-6.533-.133-1.733-.133-2.133-.133-6.4s0-4.8.133-6.4C3.2 5.332 5.334 3.199 9.6 3.066c1.6-.133 2.133-.133 6.4-.133zM16 0c-4.4 0-4.933 0-6.533.133C3.6.4.4 3.6.134 9.466c-.133 1.6-.133 2.133-.133 6.533s0 4.933.133 6.533c.267 5.867 3.467 9.067 9.333 9.333 1.6.133 2.133.133 6.533.133s4.933 0 6.533-.133c5.867-.267 9.067-3.467 9.333-9.333.133-1.6.133-2.133.133-6.533s0-4.933-.133-6.533C31.599 3.599 28.399.399 22.533.133 20.933 0 20.4 0 16 0zm0 7.733c-4.533 0-8.267 3.733-8.267 8.267s3.733 8.267 8.267 8.267c4.533 0 8.267-3.733 8.267-8.267S20.534 7.733 16 7.733zm0 13.6c-2.933 0-5.333-2.4-5.333-5.333s2.4-5.333 5.333-5.333c2.933 0 5.333 2.4 5.333 5.333s-2.4 5.333-5.333 5.333zM24.533 5.6c-1.067 0-1.867.8-1.867 1.867s.8 1.867 1.867 1.867 1.867-.8 1.867-1.867S25.6 5.6 24.533 5.6z"/>
    </symbol>
    <symbol id="icon-facebook" viewBox="0 0 16 32">
      <path d="M4 10.667H0V16h4v16h6.667V16h4.8L16 10.667h-5.333V8.4c0-1.2.267-1.733 1.467-1.733h3.867V0h-5.067c-4.8 0-6.933 2.133-6.933 6.133v4.533z"/>
    </symbol>
    <symbol id="icon-delete" viewBox="0 0 29 32">
      <path stroke-linecap="round" stroke-linejoin="round" stroke-width="2.286" d="M24.212 13.035c0 12.219 1.759 17.743-10.072 17.743-11.832 0-10.037-5.523-10.037-17.743M26.461 8.35H1.851M19.375 8.35s.805-5.738-5.22-5.738c-6.024 0-5.219 5.738-5.219 5.738"/>
    </symbol>
    <symbol id="icon-calling" viewBox="0 0 32 32">
      <path stroke-linecap="round" stroke-linejoin="round" stroke-width="2.526" d="M20.144 2.176a11.188 11.188 0 0 1 9.882 9.869M20.144 7.148a6.212 6.212 0 0 1 4.912 4.912M10.808 21.192C1.127 11.51 2.503 7.076 3.524 5.647c.131-.231 3.363-5.068 6.827-2.23 8.598 7.081-2.287 6.08 4.933 13.301 7.222 7.22 6.219-3.665 13.3 4.931 2.838 3.465-2 6.697-2.229 6.826-1.429 1.022-5.864 2.399-15.547-7.284z"/>
    </symbol>
    <symbol id="icon-arrow-right" viewBox="0 0 21 32">
      <path stroke-linecap="round" stroke-linejoin="round" stroke-width="4" d="M3.667 2s14 8.288 14 14c0 5.71-14 14-14 14"/>
    </symbol>
    <symbol id="icon-arrow-down" viewBox="0 0 48 32">
      <path stroke-linecap="round" stroke-linejoin="round" stroke-width="6" d="M42.666 6.667 24 25.334 5.333 6.667"/>
    </symbol>
    <symbol id="icon-card" viewBox="0 0 32 32">
      <path d="M22.876 27h-9.687c-4.135 0-7.5-3.364-7.5-7.5v-7.688c0-3.844-1.916-7.403-5.126-9.519A1.25 1.25 0 1 1 1.94.206a13.89 13.89 0 0 1 4.381 4.636c.23.257 2.082 2.22 5.118 2.22h14.394c3.927-.073 7.001 3.868 5.974 7.658l-1.657 6.604a7.49 7.49 0 0 1-7.275 5.675zM7.873 8.856c.208.96.315 1.95.315 2.956V19.5c0 2.757 2.243 5 5 5h9.687a4.994 4.994 0 0 0 4.85-3.783l1.657-6.604c.61-2.252-1.217-4.593-3.549-4.55H11.439a9.32 9.32 0 0 1-3.565-.706zm4.691 21.581c0-.863-.7-1.562-1.563-1.562-2.073.083-2.071 3.043 0 3.125.863 0 1.563-.7 1.563-1.563zm12.437 0c0-.863-.7-1.562-1.563-1.562-2.073.083-2.071 3.043 0 3.125.863 0 1.563-.7 1.563-1.563zm2.082-17.124c0-.69-.56-1.25-1.25-1.25H11.939c-1.659.066-1.657 2.435 0 2.5h13.894c.69 0 1.25-.56 1.25-1.25z"/>
    </symbol>
    <symbol id="icon-enter" viewBox="0 0 32 32">
      <path d="M12 16H2v-4h10V8l6 6-6 6zM32 0v26l-12 6v-6H8v-8h2v6h10V6l8-4H10v8H8V0z"/>
    </symbol>
  </defs>
</svg>
